HIERARCHY
ROOT Hips
{
	OFFSET 0.00000 0.00000 0.00000
	CHANNELS 6 Xposition Yposition Zposition Zrotation Yrotation Xrotation 
	JOINT LHipJoint
	{
		OFFSET 0 0 0
		CHANNELS 3 Zrotation Yrotation Xrotation
		JOINT LeftUpLeg
		{
			OFFSET 1.56857 -1.73443 1.15205
			CHANNELS 3 Zrotation Yrotation Xrotation
			JOINT LeftLeg
			{
				OFFSET 2.39362 -6.57643 0.00000
				CHANNELS 3 Zrotation Yrotation Xrotation
				JOINT LeftFoot
				{
					OFFSET 2.50952 -6.89485 0.00000
					CHANNELS 3 Zrotation Yrotation Xrotation
					JOINT LeftToeBase
					{
						OFFSET 0.17171 -0.47178 1.88682
						CHANNELS 3 Zrotation Yrotation Xrotation
						End Site
						{
							OFFSET 0.00000 -0.00000 0.98146
						}
					}
				}
			}
		}
	}
	JOINT RHipJoint
	{
		OFFSET 0 0 0
		CHANNELS 3 Zrotation Yrotation Xrotation
		JOINT RightUpLeg
		{
			OFFSET -1.28153 -1.73443 1.15205
			CHANNELS 3 Zrotation Yrotation Xrotation
			JOINT RightLeg
			{
				OFFSET -2.26861 -6.23296 0.00000
				CHANNELS 3 Zrotation Yrotation Xrotation
				JOINT RightFoot
				{
					OFFSET -2.54143 -6.98254 0.00000
					CHANNELS 3 Zrotation Yrotation Xrotation
					JOINT RightToeBase
					{
						OFFSET -0.23309 -0.64041 1.93119
						CHANNELS 3 Zrotation Yrotation Xrotation
						End Site
						{
							OFFSET -0.00000 -0.00000 1.02013
						}
					}
				}
			}
		}
	}
	JOINT LowerBack
	{
		OFFSET 0 0 0
		CHANNELS 3 Zrotation Yrotation Xrotation
		JOINT Spine
		{
			OFFSET -0.07096 2.10460 -0.27878
			CHANNELS 3 Zrotation Yrotation Xrotation
			JOINT Spine1
			{
				OFFSET -0.00826 2.13662 -0.08279
				CHANNELS 3 Zrotation Yrotation Xrotation
				JOINT Neck
				{
					OFFSET 0 0 0
					CHANNELS 3 Zrotation Yrotation Xrotation
					JOINT Neck1
					{
						OFFSET 0.03239 1.77799 0.24435
						CHANNELS 3 Zrotation Yrotation Xrotation
						JOINT Head
						{
							OFFSET 0.01026 1.74194 -0.49664
							CHANNELS 3 Zrotation Yrotation Xrotation
							End Site
							{
								OFFSET 0.00170 1.83057 -0.19653
							}
						}
					}
				}
				JOINT LeftShoulder
				{
					OFFSET 0 0 0
					CHANNELS 3 Zrotation Yrotation Xrotation
					JOINT LeftArm
					{
						OFFSET 3.19178 1.35907 -0.31412
						CHANNELS 3 Zrotation Yrotation Xrotation
						JOINT LeftForeArm
						{
							OFFSET 4.85247 -0.00000 -0.00000
							CHANNELS 3 Zrotation Yrotation Xrotation
							JOINT LeftHand
							{
								OFFSET 3.55584 -0.00000 0.00000
								CHANNELS 3 Zrotation Yrotation Xrotation
								JOINT LeftFingerBase
								{
									OFFSET 0 0 0
									CHANNELS 3 Zrotation Yrotation Xrotation
									JOINT LeftHandIndex1
									{
										OFFSET 0.69320 -0.00000 0.00000
										CHANNELS 3 Zrotation Yrotation Xrotation
										End Site
										{
											OFFSET 0.55888 -0.00000 0.00000
										}
									}
								}
								JOINT LThumb
								{
									OFFSET 0 0 0
									CHANNELS 3 Zrotation Yrotation Xrotation
									End Site
									{
										OFFSET 0.56741 -0.00000 0.56741
									}
								}
							}
						}
					}
				}
				JOINT RightShoulder
				{
					OFFSET 0 0 0
					CHANNELS 3 Zrotation Yrotation Xrotation
					JOINT RightArm
					{
						OFFSET -3.28999 1.24191 -0.26899
						CHANNELS 3 Zrotation Yrotation Xrotation
						JOINT RightForeArm
						{
							OFFSET -4.64462 -0.00000 0.00000
							CHANNELS 3 Zrotation Yrotation Xrotation
							JOINT RightHand
							{
								OFFSET -3.40703 -0.00000 0.00000
								CHANNELS 3 Zrotation Yrotation Xrotation
								JOINT RightFingerBase
								{
									OFFSET 0 0 0
									CHANNELS 3 Zrotation Yrotation Xrotation
									JOINT RightHandIndex1
									{
										OFFSET -0.61958 -0.00000 0.00000
										CHANNELS 3 Zrotation Yrotation Xrotation
										End Site
										{
											OFFSET -0.49952 -0.00000 0.00000
										}
									}
								}
								JOINT RThumb
								{
									OFFSET 0 0 0
									CHANNELS 3 Zrotation Yrotation Xrotation
									End Site
									{
										OFFSET -0.50715 -0.00000 0.50715
									}
								}
							}
						}
					}
				}
			}
		}
	}
}
MOTION
Frames: 15
Frame Time: .0083333
13.3255 15.6216 -2.3472 -64.2837 99.7516 -66.2783 0.0000 0.0000 0.0000 -35.1142 -8.5111 -16.1082 5.5638 13.9919 43.2049 1.4076 -5.9332 -21.2695 0.0014 0.2458 0.6754 0.0000 0.0000 0.0000 2.5823 -6.3897 -7.7441 -10.9712 -17.9210 62.6881 -40.1484 8.1298 172.2987 -0.7200 -5.4221 15.1165 -9.6587 0.5993 15.9721 -3.5116 -0.6881 3.6551 1.8396 -0.1094 -4.9434 -0.2967 -1.0032 -30.7192 3.6469 -1.9956 14.7084 1.0287 -0.4477 9.6328 0.0000 0.0000 0.0000 -68.1349 15.1110 57.3832 91.4318 -59.9923 -61.2399 -0.0000 0.0000 -19.8901 43.7363 -23.7452 -21.0711 -7.1250 0.0000 -0.0000 8.6320 -1.0420 -8.8883 0.0000 0.0000 0.0000 79.6176 -26.5382 50.0992 -108.8484 58.6141 -76.2472 0.0000 -0.0000 -17.8824 -31.8645 -24.5211 14.4655 7.1250 -0.0000 -0.0000 -2.7736 -58.1993 0.8961
13.7366 15.6056 -2.3709 -66.7471 100.9750 -68.6529 0.0000 0.0000 0.0000 -37.0018 -7.8601 -14.1875 5.5209 13.9474 43.0271 1.6096 -6.5391 -22.7568 0.0023 0.3119 0.8570 0.0000 0.0000 0.0000 1.1810 -5.3245 -10.8735 -10.4590 -17.6600 61.0117 -40.0673 6.0856 173.5360 -0.9227 -6.1198 17.1323 -11.1487 0.5332 16.0544 -3.8414 -1.0076 3.7334 2.3738 -0.2421 -4.8364 -0.2193 -0.9148 -30.3793 3.8162 -1.9255 14.3496 1.0861 -0.3961 9.4513 -0.0000 0.0000 0.0000 -68.7863 12.1394 57.1614 91.7956 -59.9878 -61.5549 -0.0000 0.0000 -19.9093 44.2846 -24.9718 -22.3799 -7.1250 0.0000 -0.0000 8.6472 -2.7326 -9.1526 -0.0000 0.0000 0.0000 79.5158 -27.8991 49.6232 -105.9522 59.0163 -73.7694 0.0000 -0.0000 -18.2542 -32.8043 -25.3321 15.4181 7.1250 -0.0000 -0.0000 -3.6888 -59.3302 1.2923
14.1516 15.6063 -2.3828 -67.8226 101.5640 -69.7609 0.0000 0.0000 0.0000 -37.8557 -6.8092 -12.3992 5.4648 13.8889 42.7942 1.7951 -7.1118 -24.0453 0.0012 0.2209 0.6068 0.0000 0.0000 0.0000 0.7480 -4.2536 -14.0335 -10.1187 -17.4761 59.8845 -40.0350 4.9116 174.3547 -0.9932 -6.3426 17.7819 -12.0914 0.4826 16.2073 -3.9406 -1.2262 3.8339 2.8296 -0.3370 -4.7549 -0.3829 -0.8971 -30.1509 4.1819 -1.8999 14.1195 1.2446 -0.3524 9.3403 0.0000 0.0000 0.0000 -69.5893 9.2480 56.9125 92.3986 -59.9783 -62.0771 -0.0000 0.0000 -19.4951 44.5527 -25.8254 -23.2136 -7.1250 0.0000 -0.0000 8.5845 -3.8622 -9.2447 0.0000 0.0000 0.0000 79.3435 -29.4882 49.2881 -103.8118 59.2668 -71.9319 0.0000 -0.0000 -19.3802 -33.5086 -24.2521 15.2142 7.1250 -0.0000 -0.0000 -4.7542 -58.2994 1.5489
14.5748 15.6172 -2.3862 -66.6098 101.5910 -68.5545 0.0000 0.0000 0.0000 -37.8468 -6.0549 -10.5872 5.4333 13.8558 42.6628 1.9881 -7.7345 -25.3209 0.0002 0.0794 0.2181 0.0000 0.0000 0.0000 1.2070 -3.3969 -17.1331 -9.9836 -17.4006 59.4334 -40.0018 4.2994 173.9344 -0.6127 -5.0098 13.9366 -12.3450 0.3293 16.3427 -3.8559 -1.4788 3.8756 3.1103 -0.4588 -4.7366 -0.8035 -0.9477 -29.8768 4.8552 -1.9259 13.8818 1.5439 -0.3100 9.2286 -0.0000 -0.0000 0.0000 -70.4916 6.4369 56.6246 93.6407 -59.9499 -63.1524 -0.0000 0.0000 -18.8013 44.2975 -26.2407 -23.3369 -7.1250 0.0000 -0.0000 8.3353 -4.2520 -9.0234 -0.0000 -0.0000 0.0000 79.2960 -31.3698 48.8338 -102.4688 59.4043 -70.7767 0.0000 -0.0000 -20.3108 -34.5508 -24.7284 16.0689 7.1250 -0.0000 -0.0000 -5.9099 -59.0953 2.0399
15.0224 15.6551 -2.3905 -67.7253 101.6560 -69.8454 0.0000 0.0000 0.0000 -38.0182 -4.8221 -8.3407 5.2499 13.6598 41.8913 2.1732 -8.4081 -26.4896 0.0003 0.1099 0.3020 0.0000 0.0000 0.0000 1.4086 -2.1032 -19.5453 -10.1041 -17.4680 59.8356 -39.9709 2.0863 175.3330 -0.8956 -6.0316 16.8762 -12.9384 0.3393 16.4697 -3.8072 -1.5671 3.9424 3.5068 -0.4973 -4.6947 -0.5672 -0.7705 -29.8974 4.5621 -1.7307 14.0453 1.4346 -0.2412 9.2772 -0.0000 -0.0000 0.0000 -71.5254 3.9312 56.1227 94.8670 -59.9103 -64.2137 -0.0000 0.0000 -17.3810 43.7594 -27.1771 -23.6236 -7.1250 0.0000 -0.0000 7.7941 -5.1367 -8.5370 -0.0000 -0.0000 0.0000 79.1977 -33.3361 48.4813 -101.6908 59.4772 -70.1068 0.0000 -0.0000 -20.8771 -34.8017 -24.9202 16.3236 7.1250 -0.0000 -0.0000 -6.1808 -59.3755 2.1753
15.4523 15.6967 -2.3874 -66.5892 101.9330 -68.3896 0.0000 0.0000 0.0000 -38.1857 -4.2522 -6.4133 5.0403 13.4290 40.9965 2.2947 -8.9359 -27.2326 0.0000 0.0418 0.1148 0.0000 0.0000 0.0000 1.5741 -1.4815 -22.7938 -10.2509 -17.5485 60.3236 -39.9617 1.2965 175.5828 -0.8299 -5.8120 16.2399 -13.5325 0.1094 16.4191 -3.7016 -1.9683 3.8410 4.0231 -0.6857 -4.6859 -0.5250 -0.6488 -29.9851 4.4789 -1.5719 14.1463 1.4250 -0.1738 9.3207 0.0000 0.0000 0.0000 -72.6414 1.6632 55.5745 96.4004 -59.8446 -65.5400 -0.0000 0.0000 -15.5794 42.9053 -27.5467 -23.2597 -7.1250 0.0000 -0.0000 7.2228 -5.2243 -7.9111 0.0000 0.0000 0.0000 78.9455 -35.2539 48.3197 -101.2833 59.5134 -69.7557 0.0000 -0.0000 -21.2938 -34.5266 -24.1636 15.7280 7.1250 -0.0000 -0.0000 -5.9757 -58.4517 1.9704
15.8915 15.7500 -2.3864 -65.6102 102.0290 -66.9552 0.0000 0.0000 0.0000 -38.1001 -3.4947 -4.3607 4.6877 13.0233 39.4557 2.3361 -9.3554 -27.4797 0.0009 0.1953 0.5366 0.0000 0.0000 0.0000 1.8391 -0.7122 -25.9632 -10.5718 -17.7191 61.3829 -39.9479 1.1725 175.0869 -0.5708 -4.8386 13.4488 -13.8977 -0.1495 16.1031 -3.5660 -2.3442 3.6396 4.4348 -0.8670 -4.6489 -0.4575 -0.4889 -29.9528 4.3535 -1.3721 14.4039 1.4035 -0.0920 9.3996 0.0000 0.0000 0.0000 -73.7663 -0.3499 55.0655 98.2008 -59.7443 -67.0960 -0.0000 0.0000 -14.2487 42.8986 -29.1052 -24.3222 -7.1250 0.0000 -0.0000 6.8146 -7.0190 -7.6475 0.0000 0.0000 0.0000 78.5916 -37.3491 48.2673 -101.1741 59.5229 -69.6616 0.0000 -0.0000 -21.5030 -34.1756 -23.7670 15.3038 7.1250 -0.0000 -0.0000 -5.6248 -57.9168 1.7819
16.3422 15.8158 -2.3834 -62.2523 102.1010 -63.2320 0.0000 0.0000 0.0000 -37.7282 -3.0690 -1.8401 4.2464 12.4812 37.4563 2.2929 -9.9858 -27.2216 0.0110 0.6775 1.8619 0.0000 0.0000 0.0000 2.3480 -0.5306 -28.7597 -11.1208 -17.9937 63.1733 -39.9411 1.2739 174.7578 -0.4718 -4.4052 12.2196 -13.9688 -0.5911 15.7569 -3.3672 -2.9044 3.4505 4.7814 -1.1471 -4.5555 -0.1852 -0.2285 -29.6811 4.0273 -1.0698 14.5696 1.2919 0.0198 9.4025 0.0000 0.0000 0.0000 -74.8404 -1.9795 54.7054 99.7241 -59.6397 -68.4111 -0.0000 0.0000 -12.3483 43.3914 -29.6501 -25.0644 -7.1250 0.0000 -0.0000 6.9386 -7.8451 -7.8751 0.0000 0.0000 0.0000 78.2048 -39.3247 48.2738 -101.0059 59.5373 -69.5166 0.0000 -0.0000 -21.6638 -33.7601 -24.3437 15.4047 7.1250 -0.0000 -0.0000 -5.0339 -58.4643 1.6603
16.7820 15.8929 -2.3675 -58.8165 101.8110 -59.3216 0.0000 0.0000 0.0000 -36.7751 -2.7587 0.4673 3.8081 11.9006 35.3812 2.1986 -10.2221 -26.6516 0.0134 0.7481 2.0559 0.0000 0.0000 0.0000 3.4579 -0.0955 -31.7982 -11.7153 -18.2677 65.0834 -39.9244 1.2916 174.1628 -0.4716 -4.4046 12.2180 -13.7916 -0.9740 15.4994 -3.0437 -3.3766 3.1826 5.1107 -1.3782 -4.6158 0.1530 0.0265 -29.4411 3.5838 -0.7728 14.7200 1.1273 0.1191 9.4056 0.0000 0.0000 0.0000 -75.8798 -3.2330 54.4146 101.8131 -59.4661 -70.2121 -0.0000 0.0000 -10.7962 43.8824 -29.7354 -25.5018 -7.1250 0.0000 -0.0000 7.1827 -8.1492 -8.1886 0.0000 0.0000 0.0000 77.8041 -41.1029 48.2884 -100.8656 59.5492 -69.3957 0.0000 -0.0000 -21.8693 -33.4819 -24.8005 15.5064 7.1250 -0.0000 -0.0000 -4.6142 -58.9073 1.5705
17.2509 15.9891 -2.3599 -58.0478 101.6820 -58.3237 0.0000 0.0000 0.0000 -36.3501 -2.0906 3.2191 3.3244 11.2025 32.9658 2.0667 -9.8253 -25.8176 0.0030 0.3565 0.9795 0.0000 0.0000 0.0000 4.0160 0.6507 -34.0922 -12.5182 -18.6012 67.6222 -39.8911 1.3453 173.1186 -0.3750 -3.9329 10.8880 -14.0097 -1.1786 15.2821 -2.8356 -3.6807 2.9213 5.5023 -1.5165 -4.6980 0.3771 0.2566 -29.1782 3.1948 -0.4792 15.0119 1.0004 0.2179 9.4586 0.0000 0.0000 0.0000 -76.8545 -4.1323 54.2764 103.9479 -59.2520 -72.0489 -0.0000 0.0000 -9.7332 44.2316 -29.6594 -25.7222 -7.1250 0.0000 -0.0000 7.3933 -8.2113 -8.4393 0.0000 0.0000 0.0000 77.1565 -43.0801 48.6046 -100.9917 59.5385 -69.5044 0.0000 -0.0000 -22.1657 -33.9365 -24.0897 15.3579 7.1250 -0.0000 -0.0000 -5.2885 -58.2222 1.7138
17.7436 16.0940 -2.3725 -58.2864 102.3970 -58.4920 0.0000 0.0000 0.0000 -37.1086 -1.4902 6.3820 2.8499 10.4480 30.4402 1.8864 -9.1372 -24.6349 0.0102 -0.6514 -1.7901 0.0000 0.0000 0.0000 3.3134 0.8433 -35.6090 -13.5899 -18.9849 70.9479 -39.8639 1.6717 172.2057 -0.2953 -3.4944 9.6583 -14.8679 -1.4804 15.0954 -2.8640 -4.2120 2.6729 6.0228 -1.7535 -4.7003 0.5552 0.6041 -28.8739 2.9362 -0.0337 15.3540 0.9514 0.4011 9.5233 -0.0000 -0.0000 0.0000 -77.6850 -4.7836 54.1530 105.8810 -59.0252 -73.7084 -0.0000 0.0000 -9.4708 44.7697 -29.7134 -26.1830 -7.1250 0.0000 -0.0000 7.6703 -8.5064 -8.7940 -0.0000 -0.0000 0.0000 76.2039 -45.0927 49.3220 -101.1564 59.5244 -69.6463 0.0000 -0.0000 -22.7262 -34.2948 -23.2321 15.0576 7.1250 -0.0000 -0.0000 -5.8472 -57.3405 1.7714
18.2549 16.2192 -2.4038 -60.0388 103.0380 -60.3112 0.0000 0.0000 0.0000 -37.8965 -0.3106 9.5571 2.3719 9.6012 27.6948 1.6415 -8.2884 -22.9451 0.0820 -1.8472 -5.0836 0.0000 0.0000 0.0000 2.3628 1.2273 -36.3463 -14.9252 -19.3710 75.0113 -39.8456 2.2281 171.4077 -0.2541 -3.2433 8.9570 -15.7439 -1.7199 14.8131 -2.9488 -4.6330 2.5015 6.4593 -1.9464 -4.5790 0.7540 1.0393 -28.5690 2.6882 0.5269 15.6338 0.9205 0.6402 9.5661 -0.0000 -0.0000 0.0000 -78.4585 -5.1058 53.9926 108.1580 -58.7168 -75.6575 -0.0000 0.0000 -9.8841 45.3965 -30.0174 -26.8958 -7.1250 0.0000 -0.0000 7.9233 -9.1332 -9.1617 -0.0000 -0.0000 0.0000 75.0904 -46.8847 50.2320 -101.4043 59.5028 -69.8599 0.0000 -0.0000 -23.4493 -34.2350 -23.1125 14.9556 7.1250 -0.0000 -0.0000 -5.7955 -57.1905 1.7346
18.7454 16.3468 -2.4223 -59.4309 103.4250 -59.5756 0.0000 0.0000 0.0000 -37.8426 0.5202 12.2680 1.9839 8.8324 25.2724 1.3127 -7.7375 -20.4843 0.1531 -2.5214 -6.9491 0.0000 0.0000 0.0000 2.1022 1.3282 -37.2563 -16.3680 -19.6807 79.3263 -39.8311 3.6264 170.0322 -0.2232 -3.0409 8.3926 -16.1181 -2.0787 14.6607 -2.8886 -5.1766 2.2106 6.8063 -2.1899 -4.6561 0.8785 1.3341 -28.2813 2.5043 0.9142 15.9444 0.8969 0.8032 9.6264 -0.0000 -0.0000 0.0000 -79.0980 -5.1432 53.9697 110.7779 -58.3042 -77.8917 -0.0000 0.0000 -10.4807 46.3133 -30.2919 -27.8374 -7.1250 0.0000 -0.0000 8.3365 -9.8665 -9.7364 -0.0000 -0.0000 0.0000 74.0944 -48.6407 51.0613 -101.8319 59.4644 -70.2283 0.0000 -0.0000 -23.8337 -34.1354 -22.9955 14.8341 7.1250 -0.0000 -0.0000 -5.6973 -57.0340 1.6836
19.2339 16.4795 -2.4317 -58.5224 103.6930 -58.5450 0.0000 0.0000 0.0000 -37.4432 1.2856 14.8686 1.6282 8.0445 22.8492 0.9415 -7.0491 -17.3264 0.1743 -2.6891 -7.4145 0.0000 0.0000 0.0000 2.1355 1.4322 -37.9570 -18.1999 -19.9221 84.7303 -42.4907 31.7354 148.6739 -0.2795 -3.4006 9.3961 -16.3910 -2.4208 14.4599 -2.8061 -5.6646 1.9722 7.1049 -2.4156 -4.6617 1.1512 1.5436 -28.1662 2.2388 1.1435 16.3577 0.7983 0.8947 9.7563 0.0000 0.0000 0.0000 -79.4714 -5.1578 54.1333 113.2838 -57.8490 -80.0188 -0.0000 0.0000 -11.2603 46.9368 -30.0311 -28.1691 -7.1250 0.0000 -0.0000 8.7460 -9.8581 -10.2237 0.0000 0.0000 0.0000 73.2202 -50.2978 51.7756 -102.4063 59.4104 -70.7229 0.0000 -0.0000 -24.0462 -33.9795 -22.7945 14.6344 7.1250 -0.0000 -0.0000 -5.5474 -56.7692 1.6036
19.7242 16.6239 -2.4401 -57.9864 104.0860 -57.8032 0.0000 0.0000 0.0000 -37.0313 2.0232 16.6637 1.4290 7.5587 21.3814 0.6006 -6.2814 -13.8507 0.1850 -2.7701 -7.6395 0.0000 0.0000 0.0000 2.0247 1.4135 -38.4810 -19.5515 -19.9952 88.6884 -41.4236 53.1420 110.6643 -0.3406 -3.7504 10.3754 -16.9121 -2.7673 14.1455 -2.6977 -6.1603 1.7845 7.5482 -2.6553 -4.5104 1.6340 1.8615 -28.2391 1.7750 1.4825 16.7704 0.6149 1.0264 9.9217 0.0000 0.0000 0.0000 -79.8008 -5.2247 54.3585 115.5813 -57.3768 -81.9589 -0.0000 0.0000 -12.3858 47.5926 -30.1995 -28.8427 -7.1250 0.0000 -0.0000 9.0464 -10.3663 -10.6479 0.0000 0.0000 0.0000 72.1957 -51.7443 52.5385 -103.2028 59.3310 -71.4083 0.0000 -0.0000 -24.5309 -33.9098 -23.0362 14.7377 7.1250 -0.0000 -0.0000 -5.4309 -57.0264 1.6035
